<svg width="24" height="24" xmlns="http://www.w3.org/2000/svg">
 <g>
  <title>background</title>
  <rect x="-1" y="-1" width="2.803554" height="2.803554" id="canvas_background" fill="none"/>
 </g>

 <g>
  <title>Layer 1</title>
  <rect fill="none" height="24" width="24" id="svg_1"/>
  <path style="--darkreader-inline-fill:#1f439d;" d="m12,2c-5.33,4.55 -8,8.48 -8,11.8c0,4.98 3.8,8.2 8,8.2s8,-3.22 8,-8.2c0,-3.32 -2.67,-7.25 -8,-11.8zm0,18c-3.35,0 -6,-2.57 -6,-6.2c0,-2.34 1.95,-5.44 6,-9.14c4.05,3.7 6,6.79 6,9.14c0,3.63 -2.65,6.2 -6,6.2zm-4.17,-6c0.37,0 0.67,0.26 0.74,0.62c0.41,2.22 2.28,2.98 3.64,2.87c0.43,-0.02 0.79,0.32 0.79,0.75c0,0.4 -0.32,0.73 -0.72,0.75c-2.13,0.13 -4.62,-1.09 -5.19,-4.12c-0.08,-0.45 0.28,-0.87 0.74,-0.87z" id="svg_2" fill="#406bd9"/>
 </g>
</svg>