<svg width="24.000000000000004" height="24.000000000000004" xmlns="http://www.w3.org/2000/svg">
 <g>
  <title>background</title>
  <rect fill="none" id="canvas_background" height="26" width="26" y="-1" x="-1"/>
 </g>

 <g>
  <title>Layer 1</title>
  <path id="svg_1" fill="none" d="m-0.03576,0l24,0l0,24l-24,0l0,-24z"/>
  <path style="--darkreader-inline-fill:#2d5692;" fill="#386bb7" id="svg_2" d="m12.03576,5.69l5,4.5l0,7.81l-2,0l0,-6l-6,0l0,6l-2,0l0,-7.81l5,-4.5m0,-2.69l-10,9l3,0l0,8l6,0l0,-6l2,0l0,6l6,0l0,-8l3,0l-10,-9z"/>
 </g>
</svg>