<svg width="24" height="24" xmlns="http://www.w3.org/2000/svg">
 <g>
  <title>background</title>
  <rect x="-1" y="-1" width="2.858162" height="2.858162" id="canvas_background" fill="none"/>
 </g>

 <g>
  <title>Layer 1</title>
  <rect fill="none" height="24" width="24" id="svg_2"/>
  <path d="m19.035757,3l-14,0c-1.1,0 -2,0.9 -2,2l0,14c0,1.1 0.9,2 2,2l14,0c1.1,0 2,-0.9 2,-2l0,-14c0,-1.1 -0.9,-2 -2,-2zm0,16l-14,0l0,-14l14,0l0,14z" id="svg_4" fill="#ffffff"/>
  <rect height="5" width="2" x="7.035757" y="12" id="svg_5" fill="#ffffff"/>
  <rect height="10" width="2" x="15" y="7" id="svg_6" fill="#ffffff"/>
  <rect height="3" width="2" x="11.035757" y="14" id="svg_7" fill="#ffffff"/>
  <rect height="2" width="2" x="11.035757" y="10" id="svg_8" fill="#ffffff"/>
 </g>
</svg>