<svg width="23.999999999999996" height="23.999999999999996" xmlns="http://www.w3.org/2000/svg">
 <g>
  <title>background</title>
  <rect fill="none" id="canvas_background" height="26" width="26" y="-1" x="-1"/>
 </g>

 <g>
  <title>Layer 1</title>
  <rect id="svg_2" width="24" height="24" fill="none"/>
  <path style="--darkreader-inline-fill:#2d5692;" fill="#386bb7" id="svg_4" d="m19.03576,3l-14,0c-1.1,0 -2,0.9 -2,2l0,14c0,1.1 0.9,2 2,2l14,0c1.1,0 2,-0.9 2,-2l0,-14c0,-1.1 -0.9,-2 -2,-2zm0,16l-14,0l0,-14l14,0l0,14z"/>
  <rect style="--darkreader-inline-fill:#2d5692;" fill="#386bb7" id="svg_5" y="12" x="7.035757" width="2" height="5"/>
  <rect fill="#386bb7" id="svg_6" y="7" x="15" width="2" height="10"/>
  <rect style="--darkreader-inline-fill:#2d5692;" fill="#386bb7" id="svg_7" y="14" x="11.035757" width="2" height="3"/>
  <rect style="--darkreader-inline-fill:#2d5692;" fill="#386bb7" id="svg_8" y="10" x="11.035757" width="2" height="2"/>
 </g>
</svg>